<?xml version="1.0" encoding="UTF-8"?>
<svg id="Layer_2" data-name="Layer 2" xmlns="http://www.w3.org/2000/svg" viewBox="0 0 510.65 557.07">
  <defs>
    <style>
      .cls-1 {
        opacity: .5;
        stroke-width: 2px;
      }

      .cls-1, .cls-2, .cls-3 {
        fill: none;
        isolation: isolate;
        stroke: #fff;
      }

      .cls-4 {
        fill: #fff;
      }

      .cls-2 {
        opacity: .08;
        stroke-width: .5px;
      }

      .cls-3 {
        opacity: .15;
        stroke-width: .75px;
      }

      .cls-5 {
        fill: #414042;
      }
    </style>
  </defs>
  <g id="Layer_2-2" data-name="Layer 2">
    <g>
      <line class="cls-1" x1="0" y1="396.44" x2="510.65" y2="396.44"/>
      <line class="cls-3" x1="95.75" y1="438.99" x2="414.9" y2="438.99"/>
      <line class="cls-2" x1="148.94" y1="470.91" x2="361.71" y2="470.91"/>
      <path id="moon" class="cls-4" d="M420.87,64.64s.08.08.13.12c3.87,3.77,2.06,10.1-3.22,11.23-.29.06-.58.13-.87.21-1.09.3-2.24.41-3.35.19-7.31-1.5-12.76-2.23-17.29,3.89,2.75-6.4-4.21-4.54-8.64-3.99-6.45.67-11.27,6.82-16.73,10.95-.91.69-2.05,1.06-3.19,1.2-10.02,1.2-14.11,4.42-21.1,8.49-7.68,2.25-9.59,18.58-18.51,3.87,1.28-3.07,4-5.51-1.77-4.87,3.53,4.08-3.61,6.54-3.55,11.35,4.89-1.2,6.21.75,2.96,5.07-6.79-.93-11.33.69-15.27,5.72-2.62-6.15-8.8-.74-12.42,2.97-.84.86-1.45,1.91-1.71,3.09-.73,3.29-1.78,5.68-2.91,5.34-3.82-1.16-7.87-.39-8.96,3.45-2.18,7.66-2.35,17.1-13.08,10.7-2.09,4.98-4.69,7.27-8.56,8.14-2,.45-3.73,1.74-4.66,3.57-4.37,8.61-3.73,16.88-9.89,24.8.07-1.27-3.24-4.57-4.07-3.45-1.99,10.14-2.94-3.09-6.84-1.58.12,2.56,1.11,9.32-1.95,12.79-9.98-14.99,1.48,10.87-10.04,3.83-.78,6.53-4.45,5.25-7.98,7.6-1.26.84-2.08,2.19-2.46,3.65-.65,2.51-1.59,6.26-3.28,6.94-2.94,1.19-4.83,4.04-4.39,7.18s.66,5.89-1.71,6.67c-3.62,9.15-4.84-2.92-7.07,2.98-8.27-.75-3.55,14.12-7.45,10.4-13.56-5.11-33.6,34.71-47.65,53.16-.54.7-1.28,1.13-2.08,1.51-7.09,3.33,3.62,13.43-6.13,15.97.51-2.23,1.36-6.97-1.64-5.26,1.78,7.11-1.17,15.52-5.77,20.8-1.33,1.53-1.79,3.62-1.36,5.61.66,3.08.96,6.29-3.83,1.81-2.73,5.76,2.38,11.59-7.93,10.34.8,5.34,1.1,9.65-2.33,13.01-1.19,1.16-1.94,2.73-1.97,4.39-.11,7.71-2.44,18.85-5.47,28.08-.8,2.45-2.83,4.78-5.41,4.75-2.41-.03-4,7.73,3.28,6.26,1.55,12.25-10.19-2.38-6.16,7.85,24.43,81.55-77.64-62.32-76.93-102.08,0-.51-.04-.99-.17-1.48C-37.85,77.02,251.4-100.49,420.87,64.64ZM197.67,116.24c-10.24,1.45-1.43,13.26-17.57,4.42-3.26,8.52-4.03,4.78-3.58-.74-.76.29-4.56,8.87-5.34,5.07-15.82,14.5,5.54-2.87-.08,5.55,11.5-5.94-1.49,3.6-6.93,4.86-7.67,5.64,5.52-17.33-4.04-2.26-2.18-3.86-2.71-1.54-6.15,1.61-8.34,3.89-3.51.22.83-2.41-10.89-2.12,12.8-7.44,13.93-11.43-3.77-2.93-2.19,2.82-6.53,2.18,1.39-3.3,1.91-6.52,2.48-9.55.46-2.4,2.39-4.01,4.71-4.8,3.35-1.13,3.95-6.07,8.25-4.25-1.85,3.82.53,2.7,3.27,2.88-5.38-5.43,4.12-3.55,2.86-7.42-4.96,4.31-7.54.27-12.81,1.46,1.33-18.83-8.28-1.69-16.45,7.54-2.34,2.64-1.98,6.41.3,9.11.53.63.85,1.49.76,2.72-8.72-5.75-8.94-6.25-13.29,3.46,1.87,4.96-8.33,12.17,3.96,6.48,8.46,2.84-12,12.15-13.1,19.94-2.64-.03-7.18,4.48-.54,1.13-1.09,3.01-2.11,4.22,2.05,3.8-.99,1.12-8.32,7.54-8.75,5.33,1.31-1.87,1.12-2.07-.98-1.58,1.14-3.55-4.51,1.76-8.05,1.41,2.58,5.04,2.87,10.26,5.76,12.14-4.49.65-.82,6.71.83,1.94,1.45,3.92-3.42,2.88-1.74,7.9-1.57,4.99-4.25,7.49-6.84,9.67-1.47,1.24-2.75,3.08-2.36,4.96.29,1.37-3.88,6.52-.06,5.67,7.18-1.84-1.07,6.02-2.84,9.54-3.36.93-1.38,3.27-2.83,5.65,1.28-1.11,1.04-3.9,2.54-1.54,5.3-3-1.5,6.04,2.81,4.42-.06,5.36-.69,5.12-4.06,4.21-1.02,7.05,6.32-.64,5.74-4.49,5.56,8.05-.55,6.25-2.31,12.5,3.27-.95,10.91-8.08,6.37,3.25-5.44-1.58-11.13,26.02-10.59,12.37-6.78,7.37-9.25,1.11-3.61-4.9-4.41-.18-11.38,8.99-4.67,4.97-.56,5.6-2.89,8.97-5.2,9.21-3.62.37-6.66,2.81-6.33,6.44.41,4.59.97,8.25-4.64,10.7.5,2.11,2.45,1.19,3.7-.64-1.48,4.98-2.73,7.95-4.78,14.32,8.56-6.73-6.56,8.84,3.62,4.95,3.01-7.13,1.11,4.16,5.19,4.2,3.57-6.36,13.47-12.07,13.95-17.6,3.72,2.53,1.93-1.99,2.76-3.95-3.88,4.57-2.93-.07.44-1.46,2.83,8.74-.57-5.12,4.83,1.92.28-7.07-1.12-14.66,5.15-15.05,1.38-.09,2.64-.77,3.73-1.62,24.92-19.46,94.7-79.24,98.09-106.44,10.68-5.36-3.66,12.78,6.76,7.1,2.64-12.98,13.9-21.62,23.67-26.95-8.11,9.91-9.26,7.87.71,2.7,1.29-.67,2.3-1.76,2.89-3.1,3.47-7.9,21.61-19.77,29.25-29.57-2.61,3.68-6.08,6.43.21,5.16-5.5,3.05-12.42,9.06-6.11,8.97,10.49-15.6,38.01-19.07,44.22-34.62,3.95-1.51-.36,3.16,2.03,3.77,5.24-8.9,9.94-10.63,18.9-16.76,7.7-8.2-9.55.79,2.51-7.71-1.95-5.13-2.2-6.89-7.81-2.8,3.98-5.98,1.59-2.7-5.42-3.22.52-3.68-3.78-1.69-5.83-1.74-4.09-4.66-9.46-3.98-14.94-1.37-3.56,1.7-10.53,2.22-10.58-1.72-.01-.83-4.29,2.17-15.81,8.19,1.86-6.29,16.31-6.8,16.73-13.28-9.25,9.79-14.66,3.74-16.07,9.33-8.32,8.11-18.62,10.63-28.23,18.45,1.22-.54,37.72-6.16,13.09-.16-2.96,1.64-8.75,2.17-15.63,4.15-2.06.59-3.63-.83-5.07-2.42-.63-.69-3.3.87-6.36,2.97-2.72,1.87-6.94,1.83-8.64-1-1.35-2.23-5.37,2.11-7.48.54-2.57-1.92-6.38-1.06-8.38,1.45-2.39,2.99-4.23,6.97-8.82,10.14-4.95.53-.44,2.37-1.68,5.3-2.22,1.06-2.74-.32-3.14-2.21-2.2,3-6.79,3.59-7.75,5.16,8.97,1.96-8.46,14.43,4.26,8.6,0,0-2.45,1.81-2.45,1.81,6.61,5.36-4.61,5.63,4.64,6.79-4.8-.11-7.25,6.34-8.89,8.48-.04-5.55,1.66-2.13,3.41-8.2ZM271.43,54.95c-3.33.24-5.42,4.11-4.88,7.76,2.24.74,6.02-7.37,4.88-7.76ZM257.68,59.42c-2.9.37-1.38,2.94-.1,3.46-1.79-.02-4.18-.66-3.79,2.05,6.88-1.17,8.41-3.6,3.89-5.51ZM263.55,65.32l-1.95.68c1.12,1.13,1.43.52,1.95-.68ZM256.51,68.62l-7.59,4.08c1.86.89,7.24,1.82,7.59-4.08ZM193.18,98.33c-2.74-2.43-6.64,5.04-8.24,8.35,0,0,7.6-6.14,7.6-6.14,1.2-2.24-3.99-1.26.64-2.21ZM142.91,114.26c8.6-8.58-3.96-2.44-4.92,2.72-2.02,8.05,2.88-.02,4.92-2.72ZM174.51,106.43c-4.31,1.42-1.22,7.09-6.79,4.64,2.46,8.59,9.38,1.48,6.79-4.64ZM110.83,230.26c-.45-4.26-8.39,3.18-6.44,6.05.67-5.09,3.62-2.11,6.92-3.97.12-2.05-4.1-.1-.48-2.08ZM70.81,298.33c-6.13-4.56-4.5,11.43-3.12,5.03.11-.59.32-5.37,1.16-4.79,1.38,1.35,1.85,2.53,1.96-.24ZM88.48,300c-2.32-.02-3.24,1.37-4.28,3.16,2.72.12,4.98.39,4.28-3.16ZM79.31,309.75c2.03-8.84-7.49-1.57-1.69,3.2,1.68-.21,5.31-2.59,1.69-3.2ZM85.29,313.66c-3.32-8.64-2.31-9.05-3.37.11-10.02,2.67.37,3.75,3.37-.11Z"/>
      <path id="moon-2" data-name="moon" class="cls-5" d="M99.25,508.1s-.02-.04-.03-.06c-.88-1.84.59-3.85,2.61-3.56.11.02.22.03.34.04.42.04.85.15,1.21.37,2.39,1.49,4.23,2.46,6.63.89-1.81,1.91.9,2.16,2.54,2.54,2.37.61,4.89-.94,7.36-1.69.41-.13.86-.11,1.29,0,3.71.89,5.58.28,8.59-.24,3.02.21,5.83-5.33,7.06,1.06-.86.92-2.14,1.43,0,1.96-.72-1.91,2.14-1.84,2.75-3.55-1.89-.22-2.1-1.08-.38-2.18,2.28,1.22,4.1,1.24,6.16-.02.12,2.52,3.02,1.42,4.79.58.41-.2.77-.49,1.01-.87.69-1.07,1.38-1.78,1.73-1.51,1.2.91,2.74,1.17,3.63-.05,1.78-2.43,3.07-5.75,6.04-2.07,1.39-1.49,2.61-1.96,4.1-1.76.77.1,1.55-.13,2.12-.65,2.68-2.48,3.53-5.49,6.75-7.49-.19.44.55,2.04.99,1.75,2.03-3.33.64,1.48,2.22,1.45.29-.92.83-3.44,2.37-4.27,1.57,6.62.9-4.04,4.06-.04,1.13-2.21,2.27-1.28,3.82-1.65.56-.13,1.02-.5,1.35-.97.56-.8,1.38-2.01,2.07-2.03,1.2-.04,2.24-.8,2.49-1.97.24-1.12.54-2.17,1.48-2.14,2.48-2.77,1.33,1.67,2.9-.13,2.83,1.35,3.11-4.54,4-2.71,4.13,3.59,16.45-7.89,23.84-12.58.28-.18.6-.23.93-.26,2.95-.25.48-5.23,4.26-4.85-.47.72-1.4,2.29-.11,2.08.3-2.75,2.45-5.34,4.77-6.61.67-.37,1.11-1.05,1.22-1.81.17-1.18.48-2.35,1.59-.14,1.72-1.68.67-4.42,4.16-2.62.42-1.99.88-3.56,2.53-4.3.57-.26,1.05-.71,1.27-1.3,1.05-2.72,3.33-6.36,5.62-9.23.61-.76,1.63-1.32,2.54-.97.85.32,2.43-2.21-.34-2.65,1.06-4.54,3.3,2.18,3.21-1.97,2.03-32.08,19.33,32.24,13.87,46.23-.07.18-.12.36-.14.55-9.15,87.14-134.84,112.11-173.23,31.43ZM185.05,519.07c3.82.83,2.24-4.51,6.8.73,2.27-2.59,2.05-1.16,1.17.73.31,0,2.78-2.55,2.56-1.1,7.5-3.06-2.34.29.76-1.95-4.85.6,1-1.08,3.09-.81,3.46-.99-4.22,5.42,1.14,1.33.27,1.65.76.9,2.39.24,3.46-.29,1.27.38-.61.74,3.58,2.18-5.51.96-6.43,2.22.95,1.53,1.14-.71,2.6.08-.93.98-1.53,2.06-2.13,3.06-.48.79-1.37,1.11-2.3,1.08-1.34-.04-2.19,1.63-3.48.43,1.16-1.11.16-1.03-.78-1.45,1.19,2.63-1.92.72-1.99,2.25,2.32-.88,2.71.89,4.73,1.16-2.94,6.49,2.71,1.68,6.81-.52,1.17-.63,1.54-2.01,1.09-3.26-.11-.29-.1-.64.09-1.06,2.33,3.18,2.35,3.38,5.16.52-.01-2,4.55-3.22-.55-2.81-2.62-2.11,5.84-2.73,7.25-5.35.93.36,3.13-.65.34-.33.78-.92,1.3-1.22-.23-1.61.5-.27,3.93-1.58,3.8-.74-.71.49-.67.59.14.69-.87,1.11,1.83-.03,3.03.55-.25-2.12.33-4.01-.45-5.05,1.67.36,1.17-2.27-.04-.8,0-1.58,1.59-.57,1.65-2.57,1.21-1.56,2.49-2.09,3.69-2.53.68-.25,1.38-.73,1.49-1.45.08-.52,2.23-1.8.76-2-2.78-.29,1.17-1.99,2.25-3.01,1.31.11.92-.98,1.74-1.63-.6.23-.88,1.25-1.1.21-2.27.37,1.32-1.94-.42-1.93.72-1.89.91-1.72,1.99-.96,1.28-2.36-2.32-.6-2.62.84-.92-3.58,1.01-2.14,2.46-4.13-1.28-.09-4.92,1.43-1.83-1.99,1.72,1.27,7.35-7.76,5.37-2.99,3.37-1.72,3.42.82.64,2.21,1.54.64,5.21-1.69,2.31-1.15.93-1.91,2.2-2.8,3.05-2.58,1.33.34,2.73-.12,3.09-1.45.45-1.68.74-3.05,3.05-3.18.1-.81-.71-.74-1.4-.26,1.18-1.57,2.01-2.46,3.57-4.44-3.91,1.26,3.48-2.27-.63-2.23-2,2.13.15-1.62-1.29-2.17-2.1,1.78-6.35,2.51-7.25,4.41-.98-1.38-.95.45-1.5,1.04,1.97-1.11,1.03.41-.35.46.14-3.47-.47,1.89-1.46-1.31-1.02,2.47-1.53,5.34-3.79,4.66-.5-.15-1.04-.07-1.53.09-11.37,3.63-43.92,15.66-48.68,24.85-4.48.5,2.97-4.05-1.46-3.4-2.63,4.25-7.76,5.83-11.92,6.44,4.17-2.45,4.31-1.58.1-1.05-.55.07-1.05.32-1.43.72-2.27,2.34-10.24,4.17-14.23,6.64,1.41-.96,3-1.48.6-1.85,2.35-.36,5.59-1.58,3.34-2.38-5.76,4.15-15.96,1.77-20.2,6.47-1.59.02.54-1.07-.22-1.6-3.02,2.46-4.91,2.46-8.89,3.46-3.8,1.89,3.49.97-1.9,2.4.02,2.07-.13,2.73,2.4,2.01-2.19,1.6-.92.75,1.5,1.85-.66,1.23,1.12,1.09,1.84,1.38.84,2.18,2.83,2.65,5.11,2.44,1.48-.13,4.02.59,3.52,2-.1.29,1.8-.21,6.67-.83-1.48,1.99-6.67.27-7.66,2.51,4.56-2.25,5.68.6,6.91-1.2,4.01-1.78,7.99-1.32,12.41-2.84-.5.03-14.17-2.76-4.66-1.66,1.26-.19,3.38.38,6.08.58.81.06,1.18.77,1.48,1.52.13.33,1.28.13,2.64-.22,1.21-.31,2.7.26,2.93,1.49.18.97,2.18-.04,2.72.79.66,1.02,2.12,1.21,3.16.58,1.24-.75,2.41-1.92,4.45-2.43,1.82.46.47-.78,1.29-1.66.93-.08.93.47.82,1.19,1.17-.77,2.88-.38,3.42-.81-2.92-1.87,4.88-4-.38-3.6,0,0,1.1-.32,1.1-.32-1.64-2.76,2.37-1.39-.75-3.01,1.69.67,3.4-1.3,4.26-1.84-.71,1.97-.86.54-2.28,2.46ZM150.9,531.11c1.21.35,2.46-.75,2.74-2.11-.69-.56-3.1,1.82-2.74,2.11ZM156.35,531.33c1.08.25.88-.86.49-1.21.63.24,1.39.78,1.61-.23-2.59-.49-3.45.17-2.1,1.44ZM155.05,528.47l.78.02c-.25-.55-.44-.37-.78-.02ZM157.98,528.22l3.22-.45c-.54-.56-2.33-1.6-3.22.45ZM184.3,526c.65,1.22,3.01-.92,4.01-1.88,0,0-3.5,1.18-3.5,1.18-.72.64,1.25.97-.52.7ZM204.19,526.94c-4.17,1.91,1.08,1.38,2.1-.32,1.77-2.59-1.02-.37-2.1.32ZM191.97,525.58c1.71.06,1.36-2.35,3.01-.75.25-3.37-3.13-1.75-3.01.75ZM230.74,490.06c-.4,1.57,3.39-.03,3.07-1.3-.9,1.71-1.56.27-2.97.5-.31.71,1.44.57-.1.8ZM253.83,471.2c1.57,2.42,3.09-3.46,1.77-1.37-.12.19-.82,1.86-1.04,1.54-.31-.66-.32-1.14-.73-.17ZM247.79,468.29c.82.31,1.33-.06,1.93-.56-.95-.4-1.71-.79-1.93.56ZM252.32,466.04c-1.88,2.86,2.45,1.54,1.02-.91-.62-.15-2.22.22-1.02.91ZM250.71,463.87c.04,3.49-.37,3.51,1.21.4,3.9.37.36-1.38-1.21-.4Z"/>
    </g>
  </g>
</svg>