<svg xmlns="http://www.w3.org/2000/svg" viewBox="0 0 512 512"><rect width="512" height="512" fill="#050505" rx="80"/><g transform="translate(51, 38) scale(0.784)"><path fill="#fff" d="M420.87,64.64s.08.08.13.12c3.87,3.77,2.06,10.1-3.22,11.23-.29.06-.58.13-.87.21-1.09.3-2.24.41-3.35.19-7.31-1.5-12.76-2.23-17.29,3.89,2.75-6.4-4.21-4.54-8.64-3.99-6.45.67-11.27,6.82-16.73,10.95-.91.69-2.05,1.06-3.19,1.2-10.02,1.2-14.11,4.42-21.1,8.49-7.68,2.25-9.59,18.58-18.51,3.87,1.28-3.07,4-5.51-1.77-4.87,3.53,4.08-3.61,6.54-3.55,11.35,4.89-1.2,6.21.75,2.96,5.07-6.79-.93-11.33.69-15.27,5.72-2.62-6.15-8.8-.74-12.42,2.97-.84.86-1.45,1.91-1.71,3.09-.73,3.29-1.78,5.68-2.91,5.34-3.82-1.16-7.87-.39-8.96,3.45-2.18,7.66-2.35,17.1-13.08,10.7-2.09,4.98-4.69,7.27-8.56,8.14-2,.45-3.73,1.74-4.66,3.57-4.37,8.61-3.73,16.88-9.89,24.8.07-1.27-3.24-4.57-4.07-3.45-1.99,10.14-2.94-3.09-6.84-1.58.12,2.56,1.11,9.32-1.95,12.79-9.98-14.99,1.48,10.87-10.04,3.83-.78,6.53-4.45,5.25-7.98,7.6-1.26.84-2.08,2.19-2.46,3.65-.65,2.51-1.59,6.26-3.28,6.94-2.94,1.19-4.83,4.04-4.39,7.18s.66,5.89-1.71,6.67c-3.62,9.15-4.84-2.92-7.07,2.98-8.27-.75-3.55,14.12-7.45,10.4-13.56-5.11-33.6,34.71-47.65,53.16-.54.7-1.28,1.13-2.08,1.51-7.09,3.33,3.62,13.43-6.13,15.97.51-2.23,1.36-6.97-1.64-5.26,1.78,7.11-1.17,15.52-5.77,20.8-1.33,1.53-1.79,3.62-1.36,5.61.66,3.08.96,6.29-3.83,1.81-2.73,5.76,2.38,11.59-7.93,10.34.8,5.34,1.1,9.65-2.33,13.01-1.19,1.16-1.94,2.73-1.97,4.39-.11,7.71-2.44,18.85-5.47,28.08-.8,2.45-2.83,4.78-5.41,4.75-2.41-.03-4,7.73,3.28,6.26,1.55,12.25-10.19-2.38-6.16,7.85,24.43,81.55-77.64-62.32-76.93-102.08,0-.51-.04-.99-.17-1.48C-37.85,77.02,251.4-100.49,420.87,64.64Z"/><line x1="0" x2="510.65" y1="396.44" y2="396.44" fill="none" stroke="#fff" stroke-opacity=".5" stroke-width="2"/><line x1="95.75" x2="414.9" y1="438.99" y2="438.99" fill="none" stroke="#fff" stroke-opacity=".15" stroke-width=".75"/><line x1="148.94" x2="361.71" y1="470.91" y2="470.91" fill="none" stroke="#fff" stroke-opacity=".08" stroke-width=".5"/></g></svg>